STARTFONT 2.1
FONT -FontForge-VCR OSD Mono-Book-R-Normal--44-420-75-75-P-195-ISO10646-1
SIZE 42 75 75
FONTBOUNDINGBOX 26 41 0 -1
COMMENT "Generated by fontforge, http://fontforge.sourceforge.net"
STARTPROPERTIES 39
FOUNDRY "FontForge"
FAMILY_NAME "VCR OSD Mono"
WEIGHT_NAME "Book"
SLANT "R"
SETWIDTH_NAME "Normal"
ADD_STYLE_NAME ""
PIXEL_SIZE 44
POINT_SIZE 420
RESOLUTION_X 75
RESOLUTION_Y 75
SPACING "P"
AVERAGE_WIDTH 195
CHARSET_REGISTRY "ISO10646"
CHARSET_ENCODING "1"
FONTNAME_REGISTRY ""
CHARSET_COLLECTIONS "ISO10646-1"
FONT_NAME "VCROSDMono"
FACE_NAME "VCR OSD Mono"
FONT_VERSION "1.001 March 31, 2015"
FONT_ASCENT 35
FONT_DESCENT 9
UNDERLINE_POSITION -6
UNDERLINE_THICKNESS 4
X_HEIGHT 27
CAP_HEIGHT 31
DEFAULT_CHAR 1
RAW_ASCENT 799
RAW_DESCENT 200
NORM_SPACE 13
RELATIVE_WEIGHT 40
RELATIVE_SETWIDTH 50
SUPERSCRIPT_X 0
SUPERSCRIPT_Y 19
SUPERSCRIPT_SIZE 28
SUBSCRIPT_X 0
SUBSCRIPT_Y 6
SUBSCRIPT_SIZE 28
AVG_LOWERCASE_WIDTH 198
AVG_UPPERCASE_WIDTH 196
ENDPROPERTIES
CHARS 209
STARTCHAR NULL.dup1
ENCODING 0
SWIDTH 0 0
DWIDTH 0 0
BBX 1 1 0 0
BITMAP
00
ENDCHAR
STARTCHAR NULL
ENCODING 29
SWIDTH 0 0
DWIDTH 0 0
BBX 1 1 0 0
BITMAP
00
ENDCHAR
STARTCHAR space
ENCODING 32
SWIDTH 292 0
DWIDTH 13 0
BBX 1 1 0 0
BITMAP
00
ENDCHAR
STARTCHAR exclam
ENCODING 33
SWIDTH 292 0
DWIDTH 13 0
BBX 2 33 5 -1
BITMAP
C0
C0
C0
C0
C0
C0
C0
C0
C0
C0
C0
C0
C0
C0
C0
C0
C0
C0
C0
C0
C0
C0
C0
C0
C0
C0
00
00
C0
C0
C0
C0
C0
ENDCHAR
STARTCHAR quotedbl
ENCODING 34
SWIDTH 292 0
DWIDTH 14 0
BBX 10 10 2 22
BITMAP
F3C0
F3C0
F3C0
F3C0
F3C0
F3C0
F3C0
F3C0
6180
6180
ENDCHAR
STARTCHAR numbersign
ENCODING 35
SWIDTH 292 0
DWIDTH 13 0
BBX 11 30 1 2
BITMAP
3180
3180
3180
3180
31E0
3FE0
3FE0
7FE0
FFE0
FF80
F180
F180
3180
3180
3180
31E0
31E0
31E0
3FE0
3FE0
FF80
FF80
FF80
F180
F180
3180
3180
3180
3000
3000
ENDCHAR
STARTCHAR dollar
ENCODING 36
SWIDTH 292 0
DWIDTH 13 0
BBX 11 34 1 -1
BITMAP
3380
3F80
3F80
3F80
3F80
FFC0
FFE0
FDE0
CC60
CC60
CC60
CC60
CC60
7F80
7F80
7FC0
3FC0
3FC0
0DE0
0DE0
0DE0
CC60
CC60
FDE0
FDE0
FDE0
7FC0
7FC0
7FC0
3F80
3F80
0C00
0C00
0C00
ENDCHAR
STARTCHAR percent
ENCODING 37
SWIDTH 292 0
DWIDTH 13 0
BBX 11 33 1 -1
BITMAP
7860
7860
7860
F860
D860
D9E0
D9E0
FBC0
FBC0
FBC0
FBC0
FBC0
8A40
0600
0400
1C00
1C00
3BC0
3BC0
3BC0
7FE0
7FE0
E660
E660
E660
C660
C660
C7E0
C7E0
C7E0
C3C0
C3C0
C3C0
ENDCHAR
STARTCHAR ampersand
ENCODING 38
SWIDTH 292 0
DWIDTH 13 0
BBX 11 38 1 -1
BITMAP
1E00
1E00
1E00
3E00
3E00
6180
6180
6180
6180
6180
6180
6180
6180
6180
6180
3600
3600
3600
3E00
3E00
7E00
7E00
FE00
CE60
CE60
CE60
C7E0
C7E0
C1E0
C1E0
E3E0
E3E0
E3E0
7FE0
7FE0
7E60
3E60
3E60
ENDCHAR
STARTCHAR quotesingle
ENCODING 39
SWIDTH 292 0
DWIDTH 13 0
BBX 4 9 4 23
BITMAP
F0
F0
F0
F0
F0
F0
F0
F0
60
ENDCHAR
STARTCHAR parenleft
ENCODING 40
SWIDTH 292 0
DWIDTH 13 0
BBX 5 41 4 -1
BITMAP
18
18
18
18
30
30
30
30
60
60
C0
C0
C0
C0
C0
C0
C0
C0
C0
C0
C0
C0
C0
C0
C0
C0
C0
C0
C0
C0
C0
C0
C0
C0
60
60
30
30
30
18
18
ENDCHAR
STARTCHAR parenright
ENCODING 41
SWIDTH 292 0
DWIDTH 13 0
BBX 5 41 4 -1
BITMAP
C0
C0
C0
C0
60
60
60
60
30
30
18
18
18
18
18
18
18
18
18
18
18
18
18
18
18
18
18
18
18
18
18
18
18
18
30
30
60
60
60
C0
C0
ENDCHAR
STARTCHAR asterisk
ENCODING 42
SWIDTH 292 0
DWIDTH 13 0
BBX 9 23 2 13
BITMAP
1800
1800
1800
1800
9880
D980
D980
D980
FD80
7F00
3E00
3E00
3E00
7F00
7F00
FF00
D980
D980
9880
9880
1800
1800
1800
ENDCHAR
STARTCHAR plus
ENCODING 43
SWIDTH 292 0
DWIDTH 13 0
BBX 10 24 1 4
BITMAP
0C00
0C00
0C00
0C00
0C00
0C00
0C00
0C00
FFC0
FFC0
FFC0
FFC0
FFC0
0C00
0C00
0C00
0C00
0C00
0C00
0C00
0C00
0C00
0C00
0C00
ENDCHAR
STARTCHAR comma
ENCODING 44
SWIDTH 292 0
DWIDTH 13 0
BBX 4 11 5 1
BITMAP
30
30
30
30
30
20
60
60
C0
C0
C0
ENDCHAR
STARTCHAR hyphen
ENCODING 45
SWIDTH 292 0
DWIDTH 13 0
BBX 9 5 2 15
BITMAP
FF80
FF80
FF80
FF80
FF80
ENDCHAR
STARTCHAR period
ENCODING 46
SWIDTH 146 0
DWIDTH 6 0
BBX 2 5 2 2
BITMAP
C0
C0
C0
C0
C0
ENDCHAR
STARTCHAR slash
ENCODING 47
SWIDTH 292 0
DWIDTH 13 0
BBX 11 33 1 -1
BITMAP
0060
0060
0060
0060
0060
0060
0060
00E0
00E0
01C0
01C0
01C0
0780
0780
0F00
0F00
0E00
1E00
1E00
3C00
3C00
7000
7000
7000
E000
E000
C000
C000
C000
C000
C000
C000
C000
ENDCHAR
STARTCHAR zero
ENCODING 48
SWIDTH 292 0
DWIDTH 13 0
BBX 11 33 1 -1
BITMAP
3F80
3F80
3FC0
7FC0
7FC0
F1E0
F1E0
F1E0
C060
C060
C060
C1E0
C260
C260
C260
C460
C460
C860
C860
C860
D060
F060
C060
C060
C060
F1E0
F1E0
F1E0
7FC0
7FC0
7F80
3F80
3F80
ENDCHAR
STARTCHAR one
ENCODING 49
SWIDTH 292 0
DWIDTH 13 0
BBX 6 33 3 -1
BITMAP
30
30
70
70
F0
F0
F0
F0
F0
30
30
30
30
30
30
30
30
30
30
30
30
30
30
30
30
30
30
30
FC
FC
FC
FC
FC
ENDCHAR
STARTCHAR two
ENCODING 50
SWIDTH 292 0
DWIDTH 13 0
BBX 11 33 1 -1
BITMAP
3F80
7FC0
7FC0
7FC0
77C0
F1E0
F1E0
F1E0
C060
0060
0060
01E0
3FC0
3FC0
3F80
7F80
7F80
F000
F000
F000
C000
C000
C000
C000
C000
C000
C000
C000
FFE0
FFE0
FFE0
FFE0
FFE0
ENDCHAR
STARTCHAR three
ENCODING 51
SWIDTH 292 0
DWIDTH 14 0
BBX 12 33 1 -1
BITMAP
3FC0
7FC0
7FC0
7FC0
73C0
F0F0
F0F0
F0F0
C030
0030
0030
00F0
07C0
07C0
07C0
07C0
07C0
00F0
00F0
00F0
0030
0030
C030
C030
C030
F0F0
F0F0
F0D0
7FC0
7FC0
3FC0
3FC0
3FC0
ENDCHAR
STARTCHAR four
ENCODING 52
SWIDTH 292 0
DWIDTH 13 0
BBX 10 33 2 -1
BITMAP
0300
0300
0700
0700
0F00
0F00
1F00
1B00
1B00
3300
3300
7300
6300
E300
C300
C300
C300
FFC0
FFC0
FFC0
FFC0
FFC0
0300
0300
0300
0300
0300
0300
0300
0300
0300
0300
0300
ENDCHAR
STARTCHAR five
ENCODING 53
SWIDTH 292 0
DWIDTH 13 0
BBX 11 33 1 -1
BITMAP
FFE0
FFE0
FFE0
FFE0
FFE0
C000
C000
FF80
FF80
FFC0
FFC0
FFC0
01E0
01E0
01E0
0060
0060
0060
0060
0060
0060
0060
C060
C060
C060
E1E0
E1E0
E1E0
7FC0
7FC0
3F80
3F80
3F80
ENDCHAR
STARTCHAR six
ENCODING 54
SWIDTH 292 0
DWIDTH 13 0
BBX 11 33 1 -1
BITMAP
3F80
7FC0
7FC0
7FC0
FFC0
F1E0
F1E0
F1E0
C060
C000
C000
C000
FF80
FF80
FFC0
FFC0
FFC0
C1E0
C1E0
C1E0
C060
C060
C060
C060
C060
F1E0
F1E0
F1E0
7FC0
7FC0
7F80
3F80
3F80
ENDCHAR
STARTCHAR seven
ENCODING 55
SWIDTH 292 0
DWIDTH 13 0
BBX 11 33 1 -1
BITMAP
FFE0
FFE0
FFE0
FFE0
FFE0
0060
0060
0060
0060
0060
01E0
01E0
03C0
03C0
0780
0780
0700
0F00
0F00
0C00
0C00
0C00
0C00
0C00
0C00
0C00
0C00
0C00
0C00
0C00
0C00
0C00
0C00
ENDCHAR
STARTCHAR eight
ENCODING 56
SWIDTH 292 0
DWIDTH 13 0
BBX 11 33 1 -1
BITMAP
3F80
3F80
7FC0
7FC0
FFC0
F1E0
F1E0
F1E0
C060
C060
F1E0
F1E0
F1E0
F1E0
7FC0
7FC0
7FC0
7FC0
F7C0
F1E0
C060
C060
C060
C060
C060
F1E0
F1E0
F1E0
7FC0
7FC0
7F80
3F80
3F80
ENDCHAR
STARTCHAR nine
ENCODING 57
SWIDTH 292 0
DWIDTH 13 0
BBX 11 33 1 -1
BITMAP
3F80
3F80
3FC0
7FC0
7FC0
F1E0
F1E0
F1E0
C060
C060
C060
F060
7FE0
7FE0
7FE0
3FE0
3FE0
0060
0060
0060
0060
0060
C060
C060
C060
F1E0
F1E0
FDE0
7FC0
7FC0
3F80
3F80
3F80
ENDCHAR
STARTCHAR colon
ENCODING 58
SWIDTH 146 0
DWIDTH 6 0
BBX 2 24 2 4
BITMAP
C0
C0
C0
C0
C0
00
00
00
00
00
00
00
00
00
00
00
00
00
00
C0
C0
C0
C0
C0
ENDCHAR
STARTCHAR semicolon
ENCODING 59
SWIDTH 146 0
DWIDTH 6 0
BBX 4 28 1 0
BITMAP
30
30
30
30
30
00
00
00
00
00
00
00
00
00
00
00
00
00
30
30
30
30
30
60
60
C0
C0
C0
ENDCHAR
STARTCHAR less
ENCODING 60
SWIDTH 292 0
DWIDTH 13 0
BBX 11 39 2 -1
BITMAP
00E0
00E0
00E0
00E0
00E0
00E0
03E0
0180
0780
0780
0F00
0F00
1E00
1C00
1C00
7800
7800
F000
F000
F000
E000
E000
F000
F000
F800
7800
7800
1C00
1C00
0F00
0F00
0F00
0780
0780
01E0
01E0
01E0
00E0
00E0
ENDCHAR
STARTCHAR equal
ENCODING 61
SWIDTH 292 0
DWIDTH 13 0
BBX 11 15 1 10
BITMAP
FFE0
FFE0
FFE0
FFE0
FFE0
0000
0000
0000
0000
0000
FFE0
FFE0
FFE0
FFE0
FFE0
ENDCHAR
STARTCHAR greater
ENCODING 62
SWIDTH 292 0
DWIDTH 13 0
BBX 10 39 2 -1
BITMAP
C000
C000
C000
C000
C000
C000
E000
7000
7800
7800
3C00
3C00
0E00
0E00
1E00
0780
0780
03C0
03C0
03C0
01C0
01C0
03C0
03C0
0380
0780
0780
1E00
1E00
3C00
3C00
3C00
7800
7800
E000
F000
F000
C000
C000
ENDCHAR
STARTCHAR question
ENCODING 63
SWIDTH 292 0
DWIDTH 13 0
BBX 12 33 0 -1
BITMAP
1FC0
3FE0
3FE0
3FE0
33E0
F0F0
F0F0
F0F0
E030
0030
0030
0030
0030
00F0
00F0
00F0
01E0
01E0
03C0
03C0
03C0
0700
0700
0600
0600
0600
0000
0000
0600
0600
0600
0600
0600
ENDCHAR
STARTCHAR at
ENCODING 64
SWIDTH 292 0
DWIDTH 13 0
BBX 11 29 1 2
BITMAP
3F80
3F80
3F80
6180
6180
C060
C060
C060
9A60
B660
B660
B660
B660
B660
B660
B660
B660
B660
B660
9D80
9D80
9D80
C000
6180
6180
6180
3F80
3F80
3F80
ENDCHAR
STARTCHAR A
ENCODING 65
SWIDTH 292 0
DWIDTH 13 0
BBX 11 34 1 -1
BITMAP
1100
1F00
1F00
1F00
1F00
3F80
3F80
3F80
AEA0
E0E0
E0E0
E0E0
E0E0
C060
C060
C060
C060
C060
FFE0
FFE0
FFE0
FFE0
FFE0
C060
C060
C060
C060
C060
C060
C060
C060
C060
C060
C060
ENDCHAR
STARTCHAR B
ENCODING 66
SWIDTH 292 0
DWIDTH 13 0
BBX 11 33 1 -1
BITMAP
FF80
FF80
FFC0
FFC0
FFC0
C1E0
C1E0
C060
C060
C060
C1E0
C1E0
FFC0
FFC0
FFC0
FFC0
FFC0
C1E0
C1E0
C1E0
C060
C060
C060
C060
C060
C1E0
C1E0
C1E0
FFC0
FFC0
FF80
FF80
FF80
ENDCHAR
STARTCHAR C
ENCODING 67
SWIDTH 292 0
DWIDTH 13 0
BBX 11 33 1 -1
BITMAP
3F80
7FC0
7FC0
7FC0
FFC0
F1E0
F1E0
F1E0
C060
C000
C000
C000
C000
C000
C000
C000
C000
C000
C000
C000
C000
C000
C060
C060
C060
F1E0
F1E0
F1E0
7FC0
7FC0
3F80
3F80
3F80
ENDCHAR
STARTCHAR D
ENCODING 68
SWIDTH 292 0
DWIDTH 13 0
BBX 11 33 1 -1
BITMAP
FF80
FF80
FFC0
FFC0
FFC0
C1E0
C1E0
C060
C060
C060
C060
C060
C060
C060
C060
C060
C060
C060
C060
C060
C060
C060
C060
C060
C060
C060
C1E0
C1E0
FFC0
FFC0
FF80
FF80
FF80
ENDCHAR
STARTCHAR E
ENCODING 69
SWIDTH 292 0
DWIDTH 13 0
BBX 11 33 1 -1
BITMAP
FFE0
FFE0
FFE0
FFE0
FFE0
C000
C000
C000
C000
C000
C000
C000
FF00
FF00
FF00
FF00
FF00
C000
C000
C000
C000
C000
C000
C000
C000
C000
C000
C000
FFE0
FFE0
FFE0
FFE0
FFE0
ENDCHAR
STARTCHAR F
ENCODING 70
SWIDTH 292 0
DWIDTH 13 0
BBX 11 33 1 -1
BITMAP
FFE0
FFE0
FFE0
FFE0
FFE0
C000
C000
C000
C000
C000
C000
C000
FF00
FF00
FF00
FF00
FF00
C000
C000
C000
C000
C000
C000
C000
C000
C000
C000
C000
C000
C000
C000
C000
C000
ENDCHAR
STARTCHAR G
ENCODING 71
SWIDTH 292 0
DWIDTH 13 0
BBX 11 33 1 -1
BITMAP
3F80
7FC0
7FC0
7FC0
7FE0
F1E0
F1E0
F1E0
C060
C000
C000
C000
C3E0
C3E0
C3E0
C3E0
C3E0
C060
C060
C060
C060
C060
C060
C060
C060
F1E0
F1E0
F1E0
7FC0
7FC0
7F80
3F80
3F80
ENDCHAR
STARTCHAR H
ENCODING 72
SWIDTH 292 0
DWIDTH 13 0
BBX 11 33 1 -1
BITMAP
C060
C060
C060
C060
C060
C060
C060
C060
C060
C060
C060
C060
FFE0
FFE0
FFE0
FFE0
FFE0
C060
C060
C060
C060
C060
C060
C060
C060
C060
C060
C060
C060
C060
C060
C060
C060
ENDCHAR
STARTCHAR I
ENCODING 73
SWIDTH 292 0
DWIDTH 13 0
BBX 6 33 3 -1
BITMAP
FC
FC
FC
FC
FC
30
30
30
30
30
30
30
30
30
30
30
30
30
30
30
30
30
30
30
30
30
30
30
FC
FC
FC
FC
FC
ENDCHAR
STARTCHAR J
ENCODING 74
SWIDTH 292 0
DWIDTH 13 0
BBX 10 33 2 -1
BITMAP
0FC0
0FC0
0FC0
0FC0
0FC0
0300
0300
0300
0300
0300
0300
0300
0300
0300
0300
0300
0300
0300
0300
0300
0300
0300
C300
C300
C300
E700
E700
F700
7E00
7E00
3C00
3C00
3C00
ENDCHAR
STARTCHAR K
ENCODING 75
SWIDTH 292 0
DWIDTH 13 0
BBX 12 33 1 -1
BITMAP
C030
C030
C0F0
C0F0
C1E0
C1E0
C180
C380
C3C0
CF00
CF00
CE00
DE00
DE00
FC00
FC00
FC00
FC00
DE00
DE00
CE00
CF00
CF00
C3C0
C380
C180
C1E0
C1E0
C0F0
C0F0
C070
C070
C030
ENDCHAR
STARTCHAR L
ENCODING 76
SWIDTH 292 0
DWIDTH 13 0
BBX 11 33 1 -1
BITMAP
C000
C000
C000
C000
C000
C000
C000
C000
C000
C000
C000
C000
C000
C000
C000
C000
C000
C000
C000
C000
C000
C000
C000
C000
C000
C000
C000
C000
FFE0
FFE0
FFE0
FFE0
FFE0
ENDCHAR
STARTCHAR M
ENCODING 77
SWIDTH 292 0
DWIDTH 12 0
BBX 10 33 1 -1
BITMAP
C0C0
C0C0
C0C0
C0C0
F3C0
F3C0
F3C0
FFC0
FFC0
FFC0
FFC0
FFC0
CCC0
CCC0
CCC0
CCC0
CCC0
C0C0
C0C0
C0C0
C0C0
C0C0
C0C0
C0C0
C0C0
C0C0
C0C0
C0C0
C0C0
C0C0
C0C0
C0C0
C0C0
ENDCHAR
STARTCHAR N
ENCODING 78
SWIDTH 292 0
DWIDTH 13 0
BBX 11 33 1 -1
BITMAP
C060
C060
C060
C060
C060
C060
C060
C060
E060
E060
F060
F060
D060
DC60
DC60
CE60
CE60
CE60
C760
C760
C160
C1E0
C1E0
C0E0
C0E0
C060
C060
C060
C060
C060
C060
C060
C060
ENDCHAR
STARTCHAR O
ENCODING 79
SWIDTH 292 0
DWIDTH 13 0
BBX 11 33 1 -1
BITMAP
3F80
3F80
3FC0
7FC0
7FC0
F1E0
F1E0
F1E0
C060
C060
C060
C060
C060
C060
C060
C060
C060
C060
C060
C060
C060
C060
C060
C060
C060
F1E0
F1E0
F1E0
7FC0
7FC0
7F80
3F80
3F80
ENDCHAR
STARTCHAR P
ENCODING 80
SWIDTH 292 0
DWIDTH 13 0
BBX 11 33 1 -1
BITMAP
FF80
FF80
FFC0
FFC0
FFC0
C1E0
C1E0
C060
C060
C060
C1E0
C1E0
FFC0
FFC0
FF80
FF80
FF80
C000
C000
C000
C000
C000
C000
C000
C000
C000
C000
C000
C000
C000
C000
C000
C000
ENDCHAR
STARTCHAR Q
ENCODING 81
SWIDTH 292 0
DWIDTH 13 0
BBX 11 33 1 -1
BITMAP
3F80
3F80
3FC0
7FC0
7FC0
F0E0
F0E0
F0E0
C060
C060
C060
C060
C060
C060
C060
C060
C060
CC60
CC60
CC60
CF60
CF60
C7E0
C7E0
C7E0
F3C0
F3C0
F3C0
7FE0
7FE0
7C60
3C60
3E60
ENDCHAR
STARTCHAR R
ENCODING 82
SWIDTH 292 0
DWIDTH 13 0
BBX 11 33 1 -1
BITMAP
FF80
FF80
FFC0
FFC0
FFC0
C1E0
C1E0
C060
C060
C060
C1E0
C1E0
FFC0
FFC0
FF80
FF80
FF80
DC00
DC00
DC00
CE00
CE00
C780
C780
C780
C3C0
C3C0
C3C0
C1E0
C1E0
C060
C060
C060
ENDCHAR
STARTCHAR S
ENCODING 83
SWIDTH 292 0
DWIDTH 13 0
BBX 11 33 1 -1
BITMAP
3F80
7FC0
7FC0
7FC0
7FE0
F1E0
F1E0
F1E0
C060
C000
C000
F000
7F80
7F80
7FC0
3FC0
3FC0
01E0
01E0
01E0
0060
0060
C060
C060
C060
F1E0
F1E0
F1E0
7FC0
7FC0
3F80
3F80
3F80
ENDCHAR
STARTCHAR T
ENCODING 84
SWIDTH 292 0
DWIDTH 13 0
BBX 10 33 1 -1
BITMAP
FFC0
FFC0
FFC0
FFC0
FFC0
0C00
0C00
0C00
0C00
0C00
0C00
0C00
0C00
0C00
0C00
0C00
0C00
0C00
0C00
0C00
0C00
0C00
0C00
0C00
0C00
0C00
0C00
0C00
0C00
0C00
0C00
0C00
0C00
ENDCHAR
STARTCHAR U
ENCODING 85
SWIDTH 292 0
DWIDTH 13 0
BBX 11 33 1 -1
BITMAP
C060
C060
C060
C060
C060
C060
C060
C060
C060
C060
C060
C060
C060
C060
C060
C060
C060
C060
C060
C060
C060
C060
C060
C060
C060
E0E0
E0E0
E0E0
7FC0
7FC0
7F80
3F80
3F80
ENDCHAR
STARTCHAR V
ENCODING 86
SWIDTH 292 0
DWIDTH 13 0
BBX 11 33 1 -1
BITMAP
C060
C060
C060
C060
C060
C060
C060
C060
C060
C060
C060
C060
C060
C060
C060
C060
C060
C060
C060
C060
E0E0
E0E0
71C0
71C0
71C0
3F80
3F80
3F80
1F00
1F00
0E00
0E00
0E00
ENDCHAR
STARTCHAR W
ENCODING 87
SWIDTH 292 0
DWIDTH 12 0
BBX 10 33 1 -1
BITMAP
C0C0
C0C0
C0C0
C0C0
C0C0
C0C0
C0C0
C0C0
C0C0
C0C0
C0C0
C0C0
CCC0
CCC0
CCC0
CCC0
CCC0
CCC0
CCC0
CCC0
CCC0
CCC0
CCC0
CCC0
CCC0
FFC0
FFC0
FFC0
7F80
7F80
7380
3300
3300
ENDCHAR
STARTCHAR X
ENCODING 88
SWIDTH 292 0
DWIDTH 13 0
BBX 11 33 1 -1
BITMAP
C060
C060
C060
C060
E1E0
E1E0
E1E0
F1E0
F1E0
F1E0
7BC0
7BC0
5A40
1E00
1E00
1E00
1E00
3F80
3F80
3F80
7BC0
7BC0
7BC0
E1E0
F1E0
C060
C060
C060
C060
C060
C060
C060
C060
ENDCHAR
STARTCHAR Y
ENCODING 89
SWIDTH 292 0
DWIDTH 12 0
BBX 10 33 1 -1
BITMAP
C0C0
C0C0
C0C0
C0C0
C0C0
C0C0
C0C0
C0C0
C0C0
C0C0
E1C0
E1C0
7380
7380
7380
3F00
3F00
3F00
1E00
1E00
0C00
0C00
0C00
0C00
0C00
0C00
0C00
0C00
0C00
0C00
0C00
0C00
0C00
ENDCHAR
STARTCHAR Z
ENCODING 90
SWIDTH 292 0
DWIDTH 13 0
BBX 11 33 1 -1
BITMAP
FFE0
FFE0
FFE0
FFE0
FFE0
0060
0060
00E0
00E0
00C0
01C0
01C0
0780
0780
0F00
0F00
0E00
1E00
1E00
3800
3800
7000
7000
6000
E000
E000
C000
C000
FFE0
FFE0
FFE0
FFE0
FFE0
ENDCHAR
STARTCHAR bracketleft
ENCODING 91
SWIDTH 292 0
DWIDTH 13 0
BBX 6 41 3 -1
BITMAP
FC
FC
FC
FC
FC
C0
C0
C0
C0
C0
C0
C0
C0
C0
C0
C0
C0
C0
C0
C0
C0
C0
C0
C0
C0
C0
C0
C0
C0
C0
C0
C0
C0
C0
C0
C0
FC
FC
FC
FC
FC
ENDCHAR
STARTCHAR backslash
ENCODING 92
SWIDTH 292 0
DWIDTH 13 0
BBX 11 33 1 -1
BITMAP
C000
C000
C000
C000
C000
C000
C000
E000
E000
7000
7000
7000
3C00
3C00
1E00
1E00
1F00
0F00
0F00
0780
0780
01C0
01C0
01C0
00E0
00E0
0060
0060
0060
0060
0060
0060
0060
ENDCHAR
STARTCHAR bracketright
ENCODING 93
SWIDTH 292 0
DWIDTH 13 0
BBX 6 41 4 -1
BITMAP
FC
FC
FC
FC
FC
0C
0C
0C
0C
0C
0C
0C
0C
0C
0C
0C
0C
0C
0C
0C
0C
0C
0C
0C
0C
0C
0C
0C
0C
0C
0C
0C
0C
0C
0C
0C
FC
FC
FC
FC
FC
ENDCHAR
STARTCHAR asciicircum
ENCODING 94
SWIDTH 292 0
DWIDTH 13 0
BBX 11 12 1 20
BITMAP
0E00
1F00
1F00
1F00
3F80
3F80
3F80
3FC0
71C0
E0E0
E0E0
E0E0
ENDCHAR
STARTCHAR underscore
ENCODING 95
SWIDTH 292 0
DWIDTH 13 0
BBX 13 5 0 0
BITMAP
FFF8
FFF8
FFF8
FFF8
FFF8
ENDCHAR
STARTCHAR grave
ENCODING 96
SWIDTH 292 0
DWIDTH 13 0
BBX 5 7 4 25
BITMAP
E0
E0
F0
70
70
18
18
ENDCHAR
STARTCHAR a
ENCODING 97
SWIDTH 292 0
DWIDTH 13 0
BBX 11 28 1 0
BITMAP
3F80
3F80
3FC0
3FC0
3FC0
01E0
01E0
0060
3E60
3E60
7FE0
7FE0
7FE0
F1E0
F1E0
C060
C060
C060
C060
C060
C060
F1E0
F1E0
7FE0
7FE0
7FE0
3E60
3E60
ENDCHAR
STARTCHAR b
ENCODING 98
SWIDTH 292 0
DWIDTH 13 0
BBX 12 33 1 -1
BITMAP
C000
C000
C000
C000
CF00
CF00
CF00
DF00
DF00
DBC0
FBC0
FBC0
F0F0
F0F0
F0F0
E0F0
E0F0
E0F0
E0F0
E0F0
E0F0
E0F0
F0F0
F0F0
F0F0
FBC0
FBC0
DB00
DF00
DF00
CF00
CF00
CF00
ENDCHAR
STARTCHAR c
ENCODING 99
SWIDTH 292 0
DWIDTH 13 0
BBX 11 28 1 0
BITMAP
3F80
3F80
7FC0
7FC0
7FC0
F1E0
F1E0
F1E0
C060
C060
C000
C000
C000
C000
C000
C000
C000
C000
C060
C060
F1E0
F1E0
F1E0
7FC0
7FC0
7FC0
3F80
3F80
ENDCHAR
STARTCHAR d
ENCODING 100
SWIDTH 292 0
DWIDTH 13 0
BBX 11 33 1 -1
BITMAP
0060
0060
0060
0060
1E60
1E60
1E60
3E60
3E60
3A60
7BE0
7BE0
E1E0
E1E0
E1E0
C1E0
C1E0
C1E0
C1E0
C1E0
C1E0
C1E0
E1E0
E1E0
E1E0
7BE0
7BE0
7A60
3E60
3E60
1E60
1E60
1E60
ENDCHAR
STARTCHAR e
ENCODING 101
SWIDTH 292 0
DWIDTH 13 0
BBX 11 28 1 0
BITMAP
3F80
3F80
7FC0
7FC0
7FC0
F1E0
F1E0
F1E0
C0E0
C0E0
FFE0
FFE0
FFC0
FFC0
FFC0
C000
C000
C000
C000
C000
C000
F1E0
F1E0
7FC0
7FC0
7FC0
3F80
3F80
ENDCHAR
STARTCHAR f
ENCODING 102
SWIDTH 292 0
DWIDTH 13 0
BBX 8 33 2 -1
BITMAP
0F
0F
1F
1F
1F
FF
FF
FF
FF
FF
18
18
18
18
18
18
18
18
18
18
18
18
18
18
18
18
18
18
18
18
18
18
18
ENDCHAR
STARTCHAR g
ENCODING 103
SWIDTH 292 0
DWIDTH 13 0
BBX 11 28 1 0
BITMAP
3FC0
3FC0
3FC0
3FC0
3FC0
F1E0
F1E0
E1E0
E1E0
F1E0
3FE0
3FE0
3FE0
1E60
1E60
0060
0060
0060
0060
0060
0060
31E0
31E0
3FC0
3FC0
3FC0
1F80
1F80
ENDCHAR
STARTCHAR h
ENCODING 104
SWIDTH 292 0
DWIDTH 13 0
BBX 11 33 1 -1
BITMAP
C000
C000
C000
C000
CF00
CF00
CF00
DF80
DF80
DDC0
FDC0
FDC0
F0E0
F0E0
F0E0
E060
E060
E060
C060
C060
C060
C060
C060
C060
C060
C060
C060
C060
C060
C060
C060
C060
C060
ENDCHAR
STARTCHAR i
ENCODING 105
SWIDTH 292 0
DWIDTH 13 0
BBX 6 34 3 -1
BITMAP
30
30
30
30
30
00
00
00
00
00
00
F0
F0
F0
F0
F0
30
30
30
30
30
30
30
30
30
30
38
38
38
1C
1C
0C
0C
0C
ENDCHAR
STARTCHAR j
ENCODING 106
SWIDTH 292 0
DWIDTH 13 0
BBX 6 39 4 -1
BITMAP
0C
0C
0C
0C
0C
00
00
00
00
00
00
3C
3C
3C
3C
3C
0C
0C
0C
0C
0C
0C
0C
0C
0C
0C
0C
0C
0C
0C
0C
1C
1C
1C
F8
F8
F0
F0
F0
ENDCHAR
STARTCHAR k
ENCODING 107
SWIDTH 292 0
DWIDTH 14 0
BBX 12 33 1 -1
BITMAP
C000
C000
C000
C000
C000
C060
C060
C0F0
C0F0
C0F0
C3C0
C3C0
C780
C780
C780
CF00
CF00
DC00
DC00
DC00
FF00
FF00
FF00
F780
F780
E3C0
E3C0
E3C0
C0F0
C0F0
C0F0
C060
C060
ENDCHAR
STARTCHAR l
ENCODING 108
SWIDTH 292 0
DWIDTH 13 0
BBX 2 33 5 -1
BITMAP
C0
C0
C0
C0
C0
C0
C0
C0
C0
C0
C0
C0
C0
C0
C0
C0
C0
C0
C0
C0
C0
C0
C0
C0
C0
C0
C0
C0
C0
C0
C0
C0
C0
ENDCHAR
STARTCHAR m
ENCODING 109
SWIDTH 292 0
DWIDTH 12 0
BBX 10 28 1 0
BITMAP
DF00
DF00
DF00
FF80
FF80
EDC0
EDC0
EDC0
CCC0
CCC0
CCC0
CCC0
CCC0
CCC0
CCC0
CCC0
CCC0
CCC0
CCC0
CCC0
CCC0
CCC0
CCC0
CCC0
CCC0
CCC0
CCC0
CCC0
ENDCHAR
STARTCHAR n
ENCODING 110
SWIDTH 292 0
DWIDTH 13 0
BBX 11 28 1 0
BITMAP
DF80
DF80
DF80
FFC0
FFC0
E0E0
E0E0
E0E0
C060
C060
C060
C060
C060
C060
C060
C060
C060
C060
C060
C060
C060
C060
C060
C060
C060
C060
C060
C060
ENDCHAR
STARTCHAR o
ENCODING 111
SWIDTH 292 0
DWIDTH 13 0
BBX 11 28 1 0
BITMAP
3F80
3F80
3FC0
7FC0
7FC0
F1E0
F1E0
F1E0
C060
C060
C060
C060
C060
C060
C060
C060
C060
C060
C060
C060
F1E0
F1E0
F1E0
7FC0
7FC0
7F80
3F80
3F80
ENDCHAR
STARTCHAR p
ENCODING 112
SWIDTH 292 0
DWIDTH 13 0
BBX 11 28 1 0
BITMAP
DF00
DF00
DFC0
FFC0
FFC0
F1E0
F1E0
F1E0
E0E0
E0E0
E0E0
E0E0
E0E0
F1E0
F1E0
F1E0
FFC0
FFC0
DF00
DF00
DF00
C000
C000
C000
C000
C000
C000
C000
ENDCHAR
STARTCHAR q
ENCODING 113
SWIDTH 292 0
DWIDTH 13 0
BBX 11 28 1 0
BITMAP
3E60
3E60
3E60
7FE0
7FE0
F1E0
F1E0
F1E0
C1E0
C1E0
C1E0
C1E0
C1E0
F1E0
F1E0
F1E0
7FE0
7FE0
3FE0
3FE0
3FE0
0060
0060
0060
0060
0060
0060
0060
ENDCHAR
STARTCHAR r
ENCODING 114
SWIDTH 292 0
DWIDTH 13 0
BBX 11 28 1 0
BITMAP
CF00
CF00
DFC0
DFC0
DFC0
F9E0
F9E0
F9E0
F0E0
F0E0
E000
E000
E000
C000
C000
C000
C000
C000
C000
C000
C000
C000
C000
C000
C000
C000
C000
C000
ENDCHAR
STARTCHAR s
ENCODING 115
SWIDTH 292 0
DWIDTH 14 0
BBX 12 28 1 0
BITMAP
3FC0
3FC0
7FE0
7FE0
7FE0
F0F0
F0F0
F0F0
F070
F070
7E00
7E00
6E40
0FC0
0FC0
03E0
03E0
03E0
E0F0
E0F0
F0F0
F0F0
F0F0
7FE0
7FE0
7FE0
3FC0
3FC0
ENDCHAR
STARTCHAR t
ENCODING 116
SWIDTH 292 0
DWIDTH 13 0
BBX 6 33 3 -1
BITMAP
30
30
30
30
30
FC
FC
FC
FC
FC
30
30
30
30
30
30
30
30
30
30
30
30
30
30
30
38
38
38
1C
1C
0C
0C
0C
ENDCHAR
STARTCHAR u
ENCODING 117
SWIDTH 292 0
DWIDTH 13 0
BBX 11 28 1 0
BITMAP
C060
C060
C060
C060
C060
C060
C060
C060
C060
C060
C060
C060
C060
C060
C060
C060
C060
C060
C060
C060
E0E0
E0E0
E0E0
7FC0
7FC0
7F80
3F80
3F80
ENDCHAR
STARTCHAR v
ENCODING 118
SWIDTH 292 0
DWIDTH 13 0
BBX 11 28 1 0
BITMAP
C060
C060
C060
C060
C060
C060
C060
C060
C060
C060
C060
C060
C060
C060
C060
E0E0
E0E0
E0E0
71C0
71C0
3F80
3F80
3F80
1F00
1F00
1F00
0E00
0E00
ENDCHAR
STARTCHAR w
ENCODING 119
SWIDTH 292 0
DWIDTH 12 0
BBX 10 28 1 0
BITMAP
C0C0
C0C0
C0C0
C0C0
C0C0
C0C0
C0C0
C0C0
C0C0
C0C0
CCC0
CCC0
CCC0
CCC0
CCC0
CCC0
CCC0
CCC0
CCC0
CCC0
EDC0
EDC0
EDC0
7F80
7F80
7300
3300
3300
ENDCHAR
STARTCHAR x
ENCODING 120
SWIDTH 292 0
DWIDTH 13 0
BBX 11 28 1 0
BITMAP
C060
C060
E1E0
F1E0
F1E0
7BC0
7BC0
7BC0
3F80
3F80
0E00
1E00
1E00
0400
0400
1E00
1E00
1E00
3F80
3F80
7FC0
7BC0
7BC0
E1E0
F1E0
F1E0
C060
C060
ENDCHAR
STARTCHAR y
ENCODING 121
SWIDTH 292 0
DWIDTH 13 0
BBX 11 28 1 0
BITMAP
C060
C060
C060
C060
C1E0
C1E0
C1E0
C1E0
C3E0
C3E0
E7E0
E7E0
E7E0
7E60
7E60
7C60
3C60
3C60
0060
0060
0060
01E0
01E0
3FC0
3FC0
3F80
3F80
3F80
ENDCHAR
STARTCHAR z
ENCODING 122
SWIDTH 292 0
DWIDTH 13 0
BBX 11 28 1 0
BITMAP
FFE0
FFE0
FFE0
FFE0
FFE0
00E0
00E0
00E0
01C0
01C0
0780
0780
0780
0F00
0F00
1E00
1E00
1E00
3800
3800
7000
7000
7000
FFE0
FFE0
FFE0
FFE0
FFE0
ENDCHAR
STARTCHAR braceleft
ENCODING 123
SWIDTH 292 0
DWIDTH 13 0
BBX 7 41 3 -1
BITMAP
1E
1E
1E
1E
1E
1E
1E
1E
38
38
38
38
38
38
38
38
38
38
F0
F0
F0
F0
F0
30
30
30
30
30
30
30
30
30
30
3C
3C
3C
0C
0C
0C
0C
0C
ENDCHAR
STARTCHAR bar
ENCODING 124
SWIDTH 292 0
DWIDTH 13 0
BBX 2 41 5 -1
BITMAP
C0
C0
C0
C0
C0
C0
C0
C0
C0
C0
C0
C0
C0
C0
C0
C0
C0
C0
C0
C0
C0
C0
C0
C0
C0
C0
C0
C0
C0
C0
C0
C0
C0
C0
C0
C0
C0
C0
C0
C0
C0
ENDCHAR
STARTCHAR braceright
ENCODING 125
SWIDTH 292 0
DWIDTH 13 0
BBX 7 41 3 -1
BITMAP
F0
F0
F0
F0
F0
F0
F0
F0
30
30
30
30
30
30
30
30
30
30
1E
1E
1E
1E
1E
30
30
30
30
30
30
30
30
30
30
F0
F0
F0
F0
F0
F0
F0
F0
ENDCHAR
STARTCHAR asciitilde
ENCODING 126
SWIDTH 292 0
DWIDTH 13 0
BBX 11 10 1 12
BITMAP
3820
3820
7E60
7E60
7E60
CFC0
CFC0
8780
8780
8780
ENDCHAR
STARTCHAR space.dup2
ENCODING 160
SWIDTH 292 0
DWIDTH 13 0
BBX 1 1 0 0
BITMAP
00
ENDCHAR
STARTCHAR exclamdown
ENCODING 161
SWIDTH 585 0
DWIDTH 26 0
BBX 4 30 13 2
BITMAP
F0
F0
F0
F0
00
00
00
00
00
F0
F0
F0
F0
F0
F0
F0
F0
F0
F0
F0
F0
F0
F0
F0
F0
F0
F0
F0
F0
F0
ENDCHAR
STARTCHAR cent
ENCODING 162
SWIDTH 585 0
DWIDTH 25 0
BBX 21 30 2 2
BITMAP
007800
007800
007800
007800
0FFF80
0FFF80
3FFFE0
3FFFE0
FC79F8
FC79F8
F07878
F07878
F07800
F07800
F07800
F07800
F07800
F07878
F07878
FC79F8
FC79F8
3FFFE0
3FFFE0
0FFF80
0FFF80
007800
007800
007800
007800
007800
ENDCHAR
STARTCHAR sterling
ENCODING 163
SWIDTH 585 0
DWIDTH 26 0
BBX 21 34 3 2
BITMAP
00FF80
00FF80
03FFE0
03FFE0
0FC3F8
0FC3F8
0F0078
0F0078
0F0000
0F0000
0F0000
0F0000
0F0000
FFFF80
FFFF80
FFFF80
FFFF80
0F0000
0F0000
0F0000
0F0000
0F0000
0F0000
0F0000
0F0000
0F0000
0F0000
0F0000
3C0000
3C0000
FFFFF8
FFFFF8
FFFFF8
FFFFF8
ENDCHAR
STARTCHAR yen
ENCODING 165
SWIDTH 585 0
DWIDTH 26 0
BBX 17 30 4 2
BITMAP
F00780
F00780
F00780
F00780
F00780
F00780
3C3C00
3C3C00
3C3C00
3C3C00
3C3C00
0FF800
0FF800
0FF800
0FF800
03C000
03C000
FFFF80
FFFF80
03C000
03C000
03C000
03C000
FFFF80
FFFF80
03C000
03C000
03C000
03C000
03C000
ENDCHAR
STARTCHAR brokenbar
ENCODING 166
SWIDTH 585 0
DWIDTH 26 0
BBX 4 35 11 2
BITMAP
F0
F0
F0
F0
F0
F0
F0
F0
F0
F0
F0
F0
F0
F0
F0
00
00
00
00
00
F0
F0
F0
F0
F0
F0
F0
F0
F0
F0
F0
F0
F0
F0
F0
ENDCHAR
STARTCHAR dieresis
ENCODING 168
SWIDTH 585 0
DWIDTH 26 0
BBX 13 4 6 28
BITMAP
F078
F078
F078
F078
ENDCHAR
STARTCHAR copyright
ENCODING 169
SWIDTH 585 0
DWIDTH 25 0
BBX 21 23 2 7
BITMAP
0FFF80
0FFF80
3C03C0
3C03C0
F2FC78
F0FC78
C3C038
C3C038
C30038
C30038
C30038
C30038
C30038
C30038
C30038
C1C038
C1C038
F0FC78
F0FC78
3C03C0
3C03C0
0FFF80
0FFF80
ENDCHAR
STARTCHAR ordfeminine
ENCODING 170
SWIDTH 585 0
DWIDTH 26 0
BBX 15 23 4 9
BITMAP
3FF8
3FF8
F01E
F01E
001E
001E
3FFE
3FFE
F01E
F01E
C01E
C01E
C01E
F01E
F01E
3FE6
3FE6
0000
0000
FFFE
FFFE
FFFE
FFFE
ENDCHAR
STARTCHAR guillemotleft
ENCODING 171
SWIDTH 585 0
DWIDTH 25 0
BBX 21 19 2 7
BITMAP
00C018
00C018
00C018
03C078
0F81E0
0F01E0
0F01E0
3C0780
B43700
F03E00
F03E00
3C0780
3C0780
0F01E0
0F81E0
03C078
03C078
004018
00C018
ENDCHAR
STARTCHAR hyphen.dup3
ENCODING 173
SWIDTH 292 0
DWIDTH 13 0
BBX 9 5 2 15
BITMAP
FF80
FF80
FF80
FF80
FF80
ENDCHAR
STARTCHAR registered
ENCODING 174
SWIDTH 585 0
DWIDTH 25 0
BBX 21 21 2 11
BITMAP
0FFF80
0FFF80
3C01E0
3C01E0
F3F878
F3F878
C30618
C30618
C30E18
C30E18
C30E18
C3F818
C3F018
C30618
C30618
F30E78
F30E78
3C01E0
3C01E0
0FFF80
0FFF80
ENDCHAR
STARTCHAR degree
ENCODING 176
SWIDTH 585 0
DWIDTH 26 0
BBX 17 17 2 15
BITMAP
0FF800
0FF800
3FFE00
3FFE00
FC1F80
FC1F80
F00780
F00780
F00780
F00780
F00780
FC1F80
FC1F80
3FFE00
3FFE00
0FF800
0FF800
ENDCHAR
STARTCHAR uni00B2
ENCODING 178
SWIDTH 585 0
DWIDTH 25 0
BBX 10 14 6 22
BITMAP
3F00
3F00
F3C0
F3C0
03C0
03C0
3F00
3F00
F000
F000
F000
F000
FFC0
FFC0
ENDCHAR
STARTCHAR uni00B3
ENCODING 179
SWIDTH 585 0
DWIDTH 25 0
BBX 10 14 6 22
BITMAP
3F00
3F00
F3C0
F3C0
03C0
03C0
0F00
0F00
03C0
03C0
F3C0
F3C0
3F00
3F00
ENDCHAR
STARTCHAR acute
ENCODING 180
SWIDTH 585 0
DWIDTH 26 0
BBX 10 6 9 26
BITMAP
0FC0
0FC0
3F00
3F00
F000
F000
ENDCHAR
STARTCHAR uni00B9
ENCODING 185
SWIDTH 585 0
DWIDTH 26 0
BBX 8 15 9 22
BITMAP
3C
3C
3C
FC
FC
3C
3C
3C
3C
3C
3C
3C
3C
FF
FF
ENDCHAR
STARTCHAR ordmasculine
ENCODING 186
SWIDTH 585 0
DWIDTH 26 0
BBX 14 23 4 9
BITMAP
0FC0
0FE0
3FF8
3FF8
F03C
F03C
F03C
F03C
F03C
F03C
F03C
F03C
F03C
3FF8
3FF8
0FC0
0FE0
0000
0000
FFFC
FFFC
FFFC
FFFC
ENDCHAR
STARTCHAR guillemotright
ENCODING 187
SWIDTH 585 0
DWIDTH 26 0
BBX 21 19 2 7
BITMAP
C01800
C01800
C01800
F81E00
B80700
3C0780
3C0780
0F81E0
0781E0
03E078
03E078
0781E0
0781E0
3C0780
3C0780
F81E00
F01E00
C01800
C01800
ENDCHAR
STARTCHAR onequarter
ENCODING 188
SWIDTH 585 0
DWIDTH 26 0
BBX 21 34 2 2
BITMAP
3C0060
3C0060
FC01E0
FC01E0
3C0180
3C0180
3C0780
3C0780
3C0600
3C0600
3C1E00
3C1E00
FF1800
FF1800
00F800
00F800
01F800
03E000
03E000
0301E0
0F07E0
0F07E0
0F07E0
0E0660
0C0660
3C1E60
3C1E60
301FF8
301FF8
F00060
F00060
F00060
C00060
C00060
ENDCHAR
STARTCHAR onehalf
ENCODING 189
SWIDTH 585 0
DWIDTH 26 0
BBX 21 34 2 2
BITMAP
3C0060
3C0060
FC01E0
FC01E0
3C0180
3C0180
3C0780
3C0780
3C0600
3C0600
3C1E00
3C1E00
FF1800
FF1800
00F800
00F800
01F800
03E000
03E000
0307E0
0307E0
0F1E78
0F1E78
0E0078
0C0078
3C07E0
3C07E0
301E00
301E00
301E00
F01E00
F01E00
C01FF8
C01FF8
ENDCHAR
STARTCHAR threequarters
ENCODING 190
SWIDTH 585 0
DWIDTH 26 0
BBX 20 34 2 2
BITMAP
3F0030
3F0030
F3C0F0
F3C0F0
03C0C0
03C0C0
0F03C0
0F03C0
03C300
03C300
F3EF00
F3EF00
3F0C00
3F0C00
001C00
003C00
00FC00
00F000
00F000
00C3C0
03CFC0
03EFC0
03EFC0
030CC0
030CC0
0F1CC0
0F1CC0
0C3FF0
0C3FF0
3C00C0
3C00C0
3C00C0
3000C0
3000C0
ENDCHAR
STARTCHAR questiondown
ENCODING 191
SWIDTH 585 0
DWIDTH 26 0
BBX 21 30 2 2
BITMAP
007800
007800
007800
007800
000000
000000
000000
000000
000000
007800
007800
03F800
03F800
0FE000
0FE000
3F8000
3F8000
3F8000
FC0000
FC0000
F00000
F00078
F00078
F00078
FC01F8
FC01F8
3FFFE0
0FFF80
0FFF80
0FFF80
ENDCHAR
STARTCHAR Agrave
ENCODING 192
SWIDTH 585 0
DWIDTH 25 0
BBX 21 34 2 2
BITMAP
0FC000
0FC000
03F000
03F000
003E00
003E00
000000
000000
00F000
00F000
03FE00
03FE00
03FE00
0FFF80
3F0FE0
3F0FE0
FC01F8
FC01F8
FC01F8
F20078
F00078
F00078
F00078
FFFFF8
FFFFF8
FFFFF8
FFFFF8
F00078
F00078
F00078
F00078
F00078
F00078
F00078
ENDCHAR
STARTCHAR Aacute
ENCODING 193
SWIDTH 585 0
DWIDTH 25 0
BBX 21 34 2 2
BITMAP
001F80
001F80
007E00
007E00
03E000
03E000
000000
000000
007800
007800
03FE00
03FE00
03FE00
0FFF80
3F87E0
3F87E0
FC01F8
FC01F8
FC01F8
F00078
F00078
F00078
F00078
FFFFF8
FFFFF8
FFFFF8
FFFFF8
F00078
F00078
F00078
F00078
F00078
F00078
F00078
ENDCHAR
STARTCHAR Acircumflex
ENCODING 194
SWIDTH 585 0
DWIDTH 26 0
BBX 20 34 2 2
BITMAP
007000
00F000
03FE00
03FE00
0F0F00
0F0F80
000000
000000
007000
00F000
03FE00
03FE00
03FE00
0FFF00
3F0FC0
3F8FC0
FC01F0
FC01F0
FC01F0
F00070
F00070
F000F0
F000F0
FFFFF0
FFFFF0
FFFFF0
FFFFF0
F00070
F00070
F00070
F00070
F000F0
F000F0
F000F0
ENDCHAR
STARTCHAR Atilde
ENCODING 195
SWIDTH 585 0
DWIDTH 26 0
BBX 21 34 2 2
BITMAP
03E180
03E180
0FFF80
0FFF80
0C3E00
0C3E00
000000
000000
007800
007800
03FE00
03FE00
03FE00
0FFF80
3F07E0
3F07E0
FC01F8
FC01F8
FC01F8
F20078
F00078
F00078
F00078
FFFFF8
FFFFF8
FFFFF8
FFFFF8
F00078
F00078
F00078
F00078
F00078
F00078
F00078
ENDCHAR
STARTCHAR Adieresis
ENCODING 196
SWIDTH 585 0
DWIDTH 26 0
BBX 21 34 2 2
BITMAP
0F0780
0F0780
0F0780
0F0780
000000
000000
000000
000000
00F800
00F800
03FE00
03FE00
03FE00
0FFF80
3F07E0
3F07E0
FC01F8
FC01F8
FC01F8
F00078
F00078
F00078
F00078
FFFFF8
FFFFF8
FFFFF8
FFFFF8
F00078
F00078
F00078
F00078
F00078
F00078
F00078
ENDCHAR
STARTCHAR Aring
ENCODING 197
SWIDTH 585 0
DWIDTH 25 0
BBX 21 34 2 2
BITMAP
007800
007800
018600
018600
018600
018600
007800
007800
007800
007800
01FE00
01FE00
01FE00
0FFF80
3F87E0
3F87E0
FE01F8
FE01F8
FE01F8
F00078
F00078
F00078
F00078
FFFFF8
FFFFF8
FFFFF8
FFFFF8
F00078
F00078
F00078
F00078
F00078
F00078
F00078
ENDCHAR
STARTCHAR AE
ENCODING 198
SWIDTH 585 0
DWIDTH 26 0
BBX 22 32 2 2
BITMAP
001FFC
001FFC
007FFC
007FFC
03FE00
03FE00
0FFE00
0FFE00
3FFE00
3F9E00
3F9E00
3C1E00
3C1E00
F01FFC
F01FFC
F01FFC
F01FFC
F01E00
F01E00
FFFE00
FFFE00
FFFE00
FFFE00
F01E00
F01E00
F01E00
F01E00
F01E00
F01FFC
F01FFC
F01FFC
F01FFC
ENDCHAR
STARTCHAR Ccedilla
ENCODING 199
SWIDTH 585 0
DWIDTH 25 0
BBX 22 30 2 2
BITMAP
0FFF80
0FFF80
3FFFE0
3FFFE0
FC01F8
FC01F8
F00078
F00078
F00000
F00000
F00000
F00000
F00000
F00000
F00000
F00078
F00078
FC01F8
FC01FC
3FFFE0
3FFFE0
0FFF80
0FFF80
00FE00
00FE00
03F800
03F800
03F800
0FE000
0FE000
ENDCHAR
STARTCHAR Egrave
ENCODING 200
SWIDTH 585 0
DWIDTH 26 0
BBX 21 34 2 2
BITMAP
0FC000
0FC000
03F800
03F800
003E00
003E00
000000
000000
FFFFF8
FFFFF8
FFFFF8
FFFFF8
F00000
F00000
F00000
F00000
F00000
F00000
F00000
FFFF80
FFFF80
FFFF80
FFFF80
F00000
F00000
F00000
F00000
F00000
F00000
F00000
FFFFF8
FFFFF8
FFFFF8
FFFFF8
ENDCHAR
STARTCHAR Eacute
ENCODING 201
SWIDTH 585 0
DWIDTH 26 0
BBX 21 34 2 2
BITMAP
001F80
001F80
007E00
007E00
01E000
01E000
000000
000000
FFFFF8
FFFFF8
FFFFF8
FFFFF8
F00000
F00000
F00000
F00000
F00000
F00000
F00000
FFFF80
FFFF80
FFFF80
FFFF80
F00000
F00000
F00000
F00000
F00000
F00000
F00000
FFFFF8
FFFFF8
FFFFF8
FFFFF8
ENDCHAR
STARTCHAR Ecircumflex
ENCODING 202
SWIDTH 585 0
DWIDTH 26 0
BBX 21 34 2 2
BITMAP
00F800
00F800
03FE00
03FE00
0F0780
0F0780
000000
000000
FFFFF8
FFFFF8
FFFFF8
FFFFF8
F00000
F00000
F00000
F00000
F00000
F00000
F00000
FFFF80
FFFF80
FFFF80
FFFF80
F00000
F00000
F00000
F00000
F00000
F00000
F00000
FFFFF8
FFFFF8
FFFFF8
FFFFF8
ENDCHAR
STARTCHAR Edieresis
ENCODING 203
SWIDTH 585 0
DWIDTH 26 0
BBX 21 34 2 2
BITMAP
0F0780
0F0780
0F0780
0F0780
000000
000000
000000
000000
FFFFF8
FFFFF8
FFFFF8
FFFFF8
F00000
F00000
F00000
F00000
F00000
F00000
F00000
FFFF80
FFFF80
FFFF80
FFFF80
F00000
F00000
F00000
F00000
F00000
F00000
F00000
FFFFF8
FFFFF8
FFFFF8
FFFFF8
ENDCHAR
STARTCHAR Igrave
ENCODING 204
SWIDTH 585 0
DWIDTH 26 0
BBX 13 34 6 2
BITMAP
FE00
FE00
1F80
1F80
01E0
01E0
0000
0000
7FF8
7FF8
7FF8
7FF8
0780
0780
0780
0780
0780
0780
0780
0780
0780
0780
0780
0780
0780
0780
0780
0780
0780
0780
7FF8
7FF8
7FF8
7FF8
ENDCHAR
STARTCHAR Iacute
ENCODING 205
SWIDTH 585 0
DWIDTH 26 0
BBX 13 34 7 2
BITMAP
03F8
03F8
0FC0
0FC0
3C00
3C00
0000
0000
FFF0
FFF0
FFF0
FFF0
0F00
0F00
0F00
0F00
0F00
0F00
0F00
0F00
0F00
0F00
0F00
0F00
0F00
0F00
0F00
0F00
0F00
0F00
FFF0
FFF0
FFF0
FFF0
ENDCHAR
STARTCHAR Icircumflex
ENCODING 206
SWIDTH 585 0
DWIDTH 26 0
BBX 12 34 7 2
BITMAP
0F00
0F00
3FC0
3FC0
F0F0
F0F0
0000
0000
FFF0
FFF0
FFF0
FFF0
0F00
0F00
0F00
0F00
0F00
0F00
0F00
0F00
0F00
0F00
0F00
0F00
0F00
0F00
0F00
0F00
0F00
0F00
FFF0
FFF0
FFF0
FFF0
ENDCHAR
STARTCHAR Idieresis
ENCODING 207
SWIDTH 585 0
DWIDTH 24 0
BBX 12 34 6 2
BITMAP
F0F0
F0F0
F0F0
F0F0
0000
0000
0000
0000
FFF0
FFF0
FFF0
FFF0
0F00
0F00
0F00
0F00
0F00
0F00
0F00
0F00
0F00
0F00
0F00
0F00
0F00
0F00
0F00
0F00
0F00
0F00
FFF0
FFF0
FFF0
FFF0
ENDCHAR
STARTCHAR Eth
ENCODING 208
SWIDTH 585 0
DWIDTH 25 0
BBX 21 30 2 2
BITMAP
3FFF80
3FFF80
3FFFE0
3FFFE0
3C01F8
3C01F8
3C0078
3C0078
3C0078
3C0078
3C0078
3C0078
3C0078
FFE078
FFE078
FFE078
FFE078
3C0078
3C0078
3C0078
3C0078
3C0078
3C0078
3C0078
3C01F8
3C01F8
3FFFE0
3FFFE0
3FFF80
3FFF80
ENDCHAR
STARTCHAR Ntilde
ENCODING 209
SWIDTH 585 0
DWIDTH 26 0
BBX 20 34 2 2
BITMAP
03C300
03C380
0FFF80
0FFF80
0C1C00
0C3C00
000000
000000
F000F0
F000F0
F000F0
F000F0
FC00F0
FC00F0
FF00F0
FF00F0
FF00F0
FFC0F0
FFE0F0
F3F0F0
F3F0F0
F0FCF0
F0FCF0
F01FF0
F03FF0
F00FF0
F00FF0
F00FF0
F003F0
F003F0
F00070
F00070
F000F0
F000F0
ENDCHAR
STARTCHAR Ograve
ENCODING 210
SWIDTH 585 0
DWIDTH 25 0
BBX 21 34 2 2
BITMAP
0FE000
0FE000
03F800
03F800
003E00
003E00
000000
000000
0FFF80
0FFF80
3FFFE0
3FFFE0
FC01F8
FC01F8
F00078
F00078
F00078
F00078
F00078
F00078
F00078
F00078
F00078
F00078
F00078
F00078
F00078
F00078
FC01F8
FC01F8
3FFFE0
3FFFE0
0FFF80
0FFF80
ENDCHAR
STARTCHAR Oacute
ENCODING 211
SWIDTH 585 0
DWIDTH 25 0
BBX 21 34 2 2
BITMAP
003F80
003F80
00FE00
00FE00
03E000
03E000
000000
000000
0FFF80
0FFF80
3FFFE0
3FFFE0
FC01F8
FC01F8
F00078
F00078
F00078
F00078
F00078
F00078
F00078
F00078
F00078
F00078
F00078
F00078
F00078
F00078
FC01F8
FC01F8
3FFFE0
3FFFE0
0FFF80
0FFF80
ENDCHAR
STARTCHAR Ocircumflex
ENCODING 212
SWIDTH 585 0
DWIDTH 25 0
BBX 21 34 2 2
BITMAP
00F800
00F800
03FE00
03FE00
0F0780
0F0780
000000
000000
0FFF80
0FFF80
3FFFE0
3FFFE0
FC01F8
FC01F8
F00078
F00078
F00078
F00078
F00078
F00078
F00078
F00078
F00078
F00078
F00078
F00078
F00078
F00078
FC01F8
FC01F8
3FFFE0
3FFFE0
0FFF80
0FFF80
ENDCHAR
STARTCHAR Otilde
ENCODING 213
SWIDTH 585 0
DWIDTH 26 0
BBX 21 34 2 2
BITMAP
03E180
03E180
0FFF80
0FFF80
0C3E00
0C3E00
000000
000000
0FFF80
0FFF80
3FFFE0
3FFFE0
FC01F8
FC01F8
F00078
F00078
F00078
F00078
F00078
F00078
F00078
F00078
F00078
F00078
F00078
F00078
F00078
F00078
FC01F8
FC01F8
3FFFE0
3FFFE0
0FFF80
0FFF80
ENDCHAR
STARTCHAR Odieresis
ENCODING 214
SWIDTH 585 0
DWIDTH 25 0
BBX 21 34 2 2
BITMAP
0F0780
0F0780
0F0780
0F0780
000000
000000
000000
000000
0FFF80
0FFF80
3FFFE0
3FFFE0
FC01F8
FC01F8
F00078
F00078
F00078
F00078
F00078
F00078
F00078
F00078
F00078
F00078
F00078
F00078
F00078
F00078
FC01F8
FC01F8
3FFFE0
3FFFE0
0FFF80
0FFF80
ENDCHAR
STARTCHAR Oslash
ENCODING 216
SWIDTH 585 0
DWIDTH 25 0
BBX 21 30 2 2
BITMAP
0FFE78
0FFE78
3FFFF8
3FFFF8
FE0FC0
FE0FC0
F00FF8
F00FF8
F01FF8
F01E78
F01E78
F01E78
F01E78
F0F078
F0F078
F0F078
F0F078
F1E078
F1E078
F1E078
F1E078
FFE078
FF0078
FF0078
3F01F8
3F01F8
FFFFC0
FFFFC0
F1FF80
F1FF80
ENDCHAR
STARTCHAR Ugrave
ENCODING 217
SWIDTH 585 0
DWIDTH 25 0
BBX 21 34 2 2
BITMAP
0FC000
0FC000
03F800
03F800
003E00
003E00
000000
000000
F00078
F00078
F00078
F00078
F00078
F00078
F00078
F00078
F00078
F00078
F00078
F00078
F00078
F00078
F00078
F00078
F00078
F00078
F00078
F00078
FC01F8
FC01F8
3FFFE0
3FFFE0
0FFF80
0FFF80
ENDCHAR
STARTCHAR Uacute
ENCODING 218
SWIDTH 585 0
DWIDTH 25 0
BBX 21 34 2 2
BITMAP
001F80
001F80
00FE00
00FE00
03E000
03E000
000000
000000
F00078
F00078
F00078
F00078
F00078
F00078
F00078
F00078
F00078
F00078
F00078
F00078
F00078
F00078
F00078
F00078
F00078
F00078
F00078
F00078
FC01F8
FC01F8
3FFFE0
3FFFE0
0FFF80
0FFF80
ENDCHAR
STARTCHAR Ucircumflex
ENCODING 219
SWIDTH 585 0
DWIDTH 25 0
BBX 21 34 2 2
BITMAP
00F800
00F800
03FE00
03FE00
0F0780
0F0780
000000
000000
F00078
F00078
F00078
F00078
F00078
F00078
F00078
F00078
F00078
F00078
F00078
F00078
F00078
F00078
F00078
F00078
F00078
F00078
F00078
F00078
FC01F8
FC01F8
3FFFE0
3FFFE0
0FFF80
0FFF80
ENDCHAR
STARTCHAR Udieresis
ENCODING 220
SWIDTH 585 0
DWIDTH 26 0
BBX 21 34 2 2
BITMAP
0F0780
0F0780
0F0780
0F0780
000000
000000
000000
000000
F00078
F00078
F00078
F00078
F00078
F00078
F00078
F00078
F00078
F00078
F00078
F00078
F00078
F00078
F00078
F00078
F00078
F00078
F00078
F00078
FC01F8
FC01F8
3FFFE0
3FFFE0
0FFF80
0FFF80
ENDCHAR
STARTCHAR Yacute
ENCODING 221
SWIDTH 585 0
DWIDTH 25 0
BBX 21 34 2 2
BITMAP
003F80
003F80
00FE00
00FE00
03E000
03E000
000000
000000
F00078
F00078
F00078
F00078
F00078
F00078
F00078
FC01F8
FC01F8
3F0FE0
3F0FE0
0FFF80
0FFF80
03FE00
03FE00
00F000
00F000
00F000
00F000
00F000
00F000
00F000
00F000
00F000
00F000
00F000
ENDCHAR
STARTCHAR Thorn
ENCODING 222
SWIDTH 585 0
DWIDTH 25 0
BBX 21 32 2 2
BITMAP
F00000
F00000
F00000
F00000
F00000
F00000
FFFF80
FFFF80
FFFFE0
FFFFE0
F001F8
F001F8
F00078
F00078
F00078
F00078
F00078
F00078
F00078
F001F8
F001F8
FFFFE0
FFFFE0
FFFF80
FFFF80
F00000
F00000
F00000
F00000
F00000
F00000
F00000
ENDCHAR
STARTCHAR germandbls
ENCODING 223
SWIDTH 585 0
DWIDTH 26 0
BBX 18 34 2 2
BITMAP
0F0000
0F0000
3FF000
3FF000
FCFC00
FCFC00
F01C00
F01C00
F01C00
F03C00
F03C00
F03C00
F03C00
F0F000
F0F000
F0F000
F0F000
F0F000
F0F000
F0FC00
F0FC00
F03F80
F01F80
F00FC0
F00FC0
F00FC0
F003C0
F003C0
F003C0
F003C0
F3FFC0
F3FFC0
F3FF80
F3FF80
ENDCHAR
STARTCHAR agrave
ENCODING 224
SWIDTH 585 0
DWIDTH 26 0
BBX 21 30 2 2
BITMAP
0FE000
0FE000
03F800
03F800
001E00
001E00
000000
000000
000000
0FFF80
0FFF80
0FFFE0
0FFFE0
000078
000078
0FFE78
0FFE78
3FFFF8
3FFFF8
FC01F8
FC01F8
F00078
F00078
F00078
FC01F8
FC01F8
3FFFF8
3FFFF8
0FFE78
0FFE78
ENDCHAR
STARTCHAR aacute
ENCODING 225
SWIDTH 585 0
DWIDTH 26 0
BBX 21 30 2 2
BITMAP
003F80
003F80
00FE00
00FE00
03E000
03E000
000000
000000
000000
0FFF80
0FFF80
0FFFE0
0FFFE0
000078
000078
0FFE78
0FFE78
3FFFF8
3FFFF8
FC01F8
FC01F8
F00078
F00078
F00078
FC01F8
FC01F8
3FFFF8
3FFFF8
0FFE78
0FFE78
ENDCHAR
STARTCHAR acircumflex
ENCODING 226
SWIDTH 585 0
DWIDTH 26 0
BBX 21 30 2 2
BITMAP
00F800
00F800
03FE00
03FE00
0F0780
0F0780
000000
000000
000000
0FFF80
0FFF80
0FFFE0
0FFFE0
000078
000078
0FFE78
0FFE78
3FFFF8
3FFFF8
FC01F8
FC01F8
F00078
F00078
F00078
FC01F8
FC01F8
3FFFF8
3FFFF8
0FFE78
0FFE78
ENDCHAR
STARTCHAR atilde
ENCODING 227
SWIDTH 585 0
DWIDTH 26 0
BBX 21 30 2 2
BITMAP
03E180
03E180
0FFF80
0FFF80
0C3E00
0C3E00
020000
000000
000000
0FFF80
0FFF80
0FFFE0
0FFFE0
000078
000078
0FFE78
0FFE78
3FFFF8
3FFFF8
FC01F8
FC01F8
F00078
F00078
F00078
FC01F8
FC01F8
3FFFF8
3FFFF8
0FFE78
0FFE78
ENDCHAR
STARTCHAR adieresis
ENCODING 228
SWIDTH 585 0
DWIDTH 25 0
BBX 21 30 2 2
BITMAP
0F0780
0F0780
0F0780
0F0780
000000
000000
000000
000000
000000
0FFF80
0FFF80
0FFFE0
0FFFE0
000078
000078
0FFE78
0FFE78
3FFFF8
3FFFF8
FC01F8
FC01F8
F00078
F00078
F00078
FC01F8
FC01F8
3FFFF8
3FFFF8
0FFE78
0FFE78
ENDCHAR
STARTCHAR aring
ENCODING 229
SWIDTH 585 0
DWIDTH 26 0
BBX 21 30 2 2
BITMAP
00F000
00F000
030E00
030E00
030E00
030E00
00F000
00F000
0FFF80
0FFF80
0FFFE0
0FFFE0
000078
000078
000078
0FFE78
0FFE78
3FFFF8
3FFFF8
FC01F8
FC01F8
F20078
F00078
F00078
FC01F8
FC01F8
3FFFF8
3FFFF8
0FFE78
0FFE78
ENDCHAR
STARTCHAR ae
ENCODING 230
SWIDTH 585 0
DWIDTH 25 0
BBX 21 24 2 2
BITMAP
FF87E0
FF87E0
FFFFF8
FFFFF8
007878
007878
007878
007878
007878
3FFFF8
3FFFF8
FFFFF8
FFFFF8
F07800
F07800
F07800
F07800
F07800
F07800
F07800
FFFFE0
FFFFE0
3FE7E0
3FE7E0
ENDCHAR
STARTCHAR ccedilla
ENCODING 231
SWIDTH 585 0
DWIDTH 25 0
BBX 21 28 2 2
BITMAP
0FFF80
0FFF80
3FFFE0
3FFFE0
FC01F8
FC01F8
F00078
F00078
F00000
F00000
F00000
F00000
F00000
F00078
F00078
FC01F8
FC01F8
3FFFE0
3FFFE0
0FFF80
0FFF80
00FE00
00FE00
03F800
03F800
03F800
0FE000
0FE000
ENDCHAR
STARTCHAR egrave
ENCODING 232
SWIDTH 585 0
DWIDTH 25 0
BBX 21 30 2 2
BITMAP
0FE000
0FE000
03F800
03F800
003E00
003E00
000000
000000
000000
0FFF80
3FFFE0
3FFFE0
3FFFE0
FC01F8
FC01F8
F00078
F00078
FFFFF8
FFFFF8
FFFFE0
FFFFE0
F00000
F00000
F00000
FC01F8
FC01F8
3FFFE0
3FFFE0
0FFF80
0FFF80
ENDCHAR
STARTCHAR eacute
ENCODING 233
SWIDTH 585 0
DWIDTH 25 0
BBX 21 30 2 2
BITMAP
003F80
003F80
00FE00
00FE00
03E000
03E000
000000
000000
000000
0FFF80
3FFFE0
3FFFE0
3FFFE0
FC01F8
FC01F8
F00078
F00078
FFFFF8
FFFFF8
FFFFE0
FFFFE0
F00000
F00000
F00000
FC01F8
FC01F8
3FFFE0
3FFFE0
0FFF80
0FFF80
ENDCHAR
STARTCHAR ecircumflex
ENCODING 234
SWIDTH 585 0
DWIDTH 25 0
BBX 21 30 2 2
BITMAP
00F800
00F800
03FE00
03FE00
0F0780
0F0780
000000
000000
000000
0FFF80
3FFFE0
3FFFE0
3FFFE0
FC01F8
FC01F8
F00078
F00078
FFFFF8
FFFFF8
FFFFE0
FFFFE0
F00000
F00000
F00000
FC01F8
FC01F8
3FFFE0
3FFFE0
0FFF80
0FFF80
ENDCHAR
STARTCHAR edieresis
ENCODING 235
SWIDTH 585 0
DWIDTH 25 0
BBX 21 30 2 2
BITMAP
0F0780
0F0780
0F0780
0F0780
000000
000000
000000
000000
000000
0FFF80
3FFFE0
3FFFE0
3FFFE0
FC01F8
FC01F8
F00078
F00078
FFFFF8
FFFFF8
FFFFE0
FFFFE0
F00000
F00000
F00000
FC01F8
FC01F8
3FFFE0
3FFFE0
0FFF80
0FFF80
ENDCHAR
STARTCHAR igrave
ENCODING 236
SWIDTH 585 0
DWIDTH 26 0
BBX 15 30 4 2
BITMAP
FE00
FE00
3F80
3F80
01E0
01E0
0000
0000
0000
0000
0000
3FE0
3FE0
3FE0
3FE0
01E0
01E0
01E0
01E0
01E0
01E0
01E0
01E0
01E0
01F8
01F8
007E
007E
001E
001E
ENDCHAR
STARTCHAR iacute
ENCODING 237
SWIDTH 585 0
DWIDTH 26 0
BBX 13 30 6 2
BITMAP
01F8
01F8
07E0
07E0
1E00
1E00
0000
0000
0000
0000
0000
FF80
FF80
FF80
FF80
0780
0780
0780
0780
0780
0780
0780
0780
0780
07E0
07E0
01F8
01F8
0078
0078
ENDCHAR
STARTCHAR icircumflex
ENCODING 238
SWIDTH 585 0
DWIDTH 26 0
BBX 15 30 4 2
BITMAP
0F80
0F80
3FE0
3FE0
F078
F078
0000
0000
0000
0000
0000
3FE0
3FE0
3FE0
3FE0
01E0
01E0
01E0
01E0
01E0
01E0
01E0
01E0
01E0
01F8
01F8
007E
007E
001E
001E
ENDCHAR
STARTCHAR idieresis
ENCODING 239
SWIDTH 585 0
DWIDTH 26 0
BBX 15 30 4 2
BITMAP
F078
F078
F078
F078
0000
0000
0000
0000
0000
0000
0000
3FE0
3FE0
3FE0
3FE0
01E0
01E0
01E0
01E0
01E0
01E0
01E0
01E0
01E0
01F8
01F8
007E
007E
001E
001E
ENDCHAR
STARTCHAR eth
ENCODING 240
SWIDTH 585 0
DWIDTH 25 0
BBX 21 32 2 2
BITMAP
0001E0
0001E0
0001E0
0001E0
03FFF8
03FFF8
03FFF8
03FFF8
0001E0
0001E0
0001E0
0FFFE0
0FFFE0
3FFFE0
3FFFE0
FC01E0
FC01E0
F001E0
F001E0
F001E0
F001E0
F001E0
F001E0
F001E0
F001E0
F001E0
FC07E0
FC07E0
3FFF80
3FFF80
0FFE00
0FFE00
ENDCHAR
STARTCHAR ntilde
ENCODING 241
SWIDTH 585 0
DWIDTH 26 0
BBX 21 30 2 2
BITMAP
03E180
03E180
0FFF80
0FFF80
0C3E00
0C3E00
000000
000000
000000
F3FF80
F3FF80
FFFFE0
FFFFE0
FC01F8
FC01F8
F00078
F00078
F00078
F00078
F00078
F00078
F00078
F00078
F00078
F00078
F00078
F00078
F00078
F00078
F00078
ENDCHAR
STARTCHAR ograve
ENCODING 242
SWIDTH 585 0
DWIDTH 25 0
BBX 21 30 2 2
BITMAP
0FE000
0FE000
03F800
03F800
003E00
003E00
000000
000000
000000
0FFF80
0FFF80
3FFFE0
3FFFE0
FC01F8
FC01F8
F00078
F00078
F00078
F00078
F00078
F00078
F00078
F00078
F00078
FC01F8
FC01F8
3FFFE0
3FFFE0
0FFF80
0FFF80
ENDCHAR
STARTCHAR oacute
ENCODING 243
SWIDTH 585 0
DWIDTH 25 0
BBX 21 30 2 2
BITMAP
003F80
003F80
00FE00
00FE00
03E000
03E000
000000
000000
000000
0FFF80
0FFF80
3FFFE0
3FFFE0
FC01F8
FC01F8
F00078
F00078
F00078
F00078
F00078
F00078
F00078
F00078
F00078
FC01F8
FC01F8
3FFFE0
3FFFE0
0FFF80
0FFF80
ENDCHAR
STARTCHAR ocircumflex
ENCODING 244
SWIDTH 585 0
DWIDTH 25 0
BBX 21 30 2 2
BITMAP
00F800
00F800
03FE00
03FE00
0F0780
0F0780
000000
000000
000000
0FFF80
0FFF80
3FFFE0
3FFFE0
FC01F8
FC01F8
F00078
F00078
F00078
F00078
F00078
F00078
F00078
F00078
F00078
FC01F8
FC01F8
3FFFE0
3FFFE0
0FFF80
0FFF80
ENDCHAR
STARTCHAR otilde
ENCODING 245
SWIDTH 585 0
DWIDTH 26 0
BBX 21 30 2 2
BITMAP
03E180
03E180
0FFF80
0FFF80
0C3E00
0C3E00
000000
000000
000000
0FFF80
0FFF80
3FFFE0
3FFFE0
FC01F8
FC01F8
F00078
F00078
F00078
F00078
F00078
F00078
F00078
F00078
F00078
FC01F8
FC01F8
3FFFE0
3FFFE0
0FFF80
0FFF80
ENDCHAR
STARTCHAR odieresis
ENCODING 246
SWIDTH 585 0
DWIDTH 25 0
BBX 21 30 2 2
BITMAP
0F0780
0F0780
0F0780
0F0780
000000
000000
000000
000000
000000
0FFF80
0FFF80
3FFFE0
3FFFE0
FC01F8
FC01F8
F00078
F00078
F00078
F00078
F00078
F00078
F00078
F00078
F00078
FC01F8
FC01F8
3FFFE0
3FFFE0
0FFF80
0FFF80
ENDCHAR
STARTCHAR oslash
ENCODING 248
SWIDTH 585 0
DWIDTH 25 0
BBX 21 24 2 2
BITMAP
0FFE78
0FFE78
3FFFF8
3FFFF8
FC01E0
FC01E0
F007F8
F007F8
F03FF8
F03E78
F0FE78
F0F878
F0F878
F3F878
F3E078
FFE078
FF0078
FF0078
3C01F8
3C01F8
FFFFE0
FFFFE0
F3FF80
F3FF80
ENDCHAR
STARTCHAR ugrave
ENCODING 249
SWIDTH 585 0
DWIDTH 25 0
BBX 21 30 2 2
BITMAP
0FC000
0FC000
03F800
03F800
003E00
003E00
000000
000000
000000
F00078
F00078
F00078
F00078
F00078
F00078
F00078
F00078
F00078
F00078
F00078
F00078
F00078
F00078
F00078
FC01F8
FC01F8
3FFFE0
3FFFE0
0FFF80
0FFF80
ENDCHAR
STARTCHAR uacute
ENCODING 250
SWIDTH 585 0
DWIDTH 25 0
BBX 21 30 2 2
BITMAP
001F80
001F80
00FE00
00FE00
03E000
03E000
000000
000000
000000
F00078
F00078
F00078
F00078
F00078
F00078
F00078
F00078
F00078
F00078
F00078
F00078
F00078
F00078
F00078
FC01F8
FC01F8
3FFFE0
3FFFE0
0FFF80
0FFF80
ENDCHAR
STARTCHAR ucircumflex
ENCODING 251
SWIDTH 585 0
DWIDTH 25 0
BBX 21 30 2 2
BITMAP
00F800
00F800
03FE00
03FE00
0F0780
0F0780
000000
000000
000000
F00078
F00078
F00078
F00078
F00078
F00078
F00078
F00078
F00078
F00078
F00078
F00078
F00078
F00078
F00078
FC01F8
FC01F8
3FFFE0
3FFFE0
0FFF80
0FFF80
ENDCHAR
STARTCHAR udieresis
ENCODING 252
SWIDTH 585 0
DWIDTH 26 0
BBX 21 30 2 2
BITMAP
0F0780
0F0780
0F0780
0F0780
000000
000000
000000
000000
000000
F00078
F00078
F00078
F00078
F00078
F00078
F00078
F00078
F00078
F00078
F00078
F00078
F00078
F00078
F00078
FC01F8
FC01F8
3FFFE0
3FFFE0
0FFF80
0FFF80
ENDCHAR
STARTCHAR yacute
ENCODING 253
SWIDTH 585 0
DWIDTH 25 0
BBX 21 30 2 2
BITMAP
001F80
001F80
007E00
007E00
01E000
01E000
000000
000000
F00078
F00078
F001F8
F001F8
F001F8
F007F8
F007F8
FC1FF8
FC1FF8
3FFE78
3FFE78
0FF878
0FF878
000078
000078
000078
0001F8
0001F8
0FFFE0
0FFFE0
0FFF80
0FFF80
ENDCHAR
STARTCHAR thorn
ENCODING 254
SWIDTH 585 0
DWIDTH 26 0
BBX 22 28 2 2
BITMAP
F00000
F00000
F00000
F00000
F07FC0
F07FC0
F07FC0
FFFFF0
FF80FC
FF80FC
FF80FC
F0003C
F0003C
F0003C
F0003C
F0003C
F0003C
FF80FC
FF80FC
FFFFF0
FFFFF0
F07FC0
F07FC0
F00000
F00000
F00000
F00000
F00000
ENDCHAR
STARTCHAR ydieresis
ENCODING 255
SWIDTH 585 0
DWIDTH 25 0
BBX 21 30 2 2
BITMAP
0F0780
0F0780
0F0780
0F0780
000000
000000
000000
000000
F00078
F00078
F001F8
F001F8
F001F8
F007F8
F007F8
FC1FF8
FC1FF8
3FFE78
3FFE78
0FF878
0FF878
000078
000078
000078
0001F8
0001F8
0FFFE0
0FFFE0
0FFF80
0FFF80
ENDCHAR
STARTCHAR semicolon.dup4
ENCODING 894
SWIDTH 146 0
DWIDTH 6 0
BBX 4 28 1 0
BITMAP
30
30
30
30
30
00
00
00
00
00
00
00
00
00
00
00
00
00
30
30
30
30
30
60
60
C0
C0
C0
ENDCHAR
STARTCHAR quoteleft
ENCODING 8216
SWIDTH 585 0
DWIDTH 26 0
BBX 6 13 13 19
BITMAP
0C
0C
30
30
F0
F0
FC
FC
FC
FC
FC
FC
FC
ENDCHAR
STARTCHAR quoteright
ENCODING 8217
SWIDTH 585 0
DWIDTH 26 0
BBX 6 13 7 19
BITMAP
FC
FC
FC
FC
FC
FC
3C
3C
3C
30
30
C0
C0
ENDCHAR
STARTCHAR quotedblleft
ENCODING 8220
SWIDTH 585 0
DWIDTH 26 0
BBX 17 13 4 19
BITMAP
0C0180
0C0180
300600
300600
F01E00
F01E00
F01E00
FC1F80
FC1F80
FC1F80
FC1F80
FC1F80
FC1F80
ENDCHAR
STARTCHAR quotedblright
ENCODING 8221
SWIDTH 585 0
DWIDTH 25 0
BBX 16 13 5 19
BITMAP
FC3F
FC3F
FC3F
FC3F
FC3F
FC3F
3C0F
3C0F
3C0F
300C
300C
C030
C030
ENDCHAR
STARTCHAR bullet
ENCODING 8226
SWIDTH 585 0
DWIDTH 26 0
BBX 13 11 6 13
BITMAP
3FE0
3FE0
3FE0
FFF8
FFF8
FFF8
FFF8
FFF8
FFF8
3FE0
3FE0
ENDCHAR
STARTCHAR ellipsis
ENCODING 8230
SWIDTH 585 0
DWIDTH 26 0
BBX 22 4 2 2
BITMAP
F0783C
F0783C
F0783C
F0783C
ENDCHAR
STARTCHAR guilsinglleft
ENCODING 8249
SWIDTH 585 0
DWIDTH 26 0
BBX 10 19 5 2
BITMAP
00C0
00C0
03C0
03C0
0F00
0F00
3C00
3C00
F000
F000
F000
3C00
3C00
0F00
0F00
03C0
03C0
00C0
00C0
ENDCHAR
STARTCHAR guilsinglright
ENCODING 8250
SWIDTH 585 0
DWIDTH 26 0
BBX 10 19 7 2
BITMAP
C000
C000
F000
F000
3C00
3C00
0F00
0F00
03C0
03C0
03C0
0F00
0F00
3C00
3C00
F000
F000
C000
C000
ENDCHAR
STARTCHAR fraction
ENCODING 8260
SWIDTH 585 0
DWIDTH 25 0
BBX 21 30 2 2
BITMAP
000078
000078
000078
000078
000078
000078
0001F8
0001F8
0001F8
0007E0
0007E0
003F80
003F80
00FE00
00FE00
03F800
03F800
0FE000
0FE000
3F0000
3F0000
FC0000
FC0000
FC0000
F00000
F00000
F00000
F00000
F00000
F00000
ENDCHAR
STARTCHAR franc
ENCODING 8355
SWIDTH 585 0
DWIDTH 26 0
BBX 21 30 2 2
BITMAP
3FFFF8
3FFFF8
3FFFF8
3FFFF8
3C0000
3C0000
3C0000
3C0000
3C0000
3C0000
3C0000
3C0000
3C0000
3FFF80
3FFF80
3FFF80
3FFF80
3C0000
3C0000
3C0000
3C0000
FFC000
FFC000
3C0000
3C0000
3C0000
3C0000
3C0000
3C0000
3C0000
ENDCHAR
STARTCHAR lira
ENCODING 8356
SWIDTH 585 0
DWIDTH 26 0
BBX 21 34 3 2
BITMAP
00FF80
00FF80
03FFE0
03FFE0
0FC3F8
0FC3F8
0F0078
0F0078
0F0000
0F0000
0F0000
0F0000
0F0000
FFFF80
FFFF80
FFFF80
FFFF80
0F0000
0F0000
FFFF80
FFFF80
FFFF80
FFFF80
0F0000
0F0000
0F0000
0F0000
0F0000
3C0000
3C0000
FFFFF8
FFFFF8
FFFFF8
FFFFF8
ENDCHAR
STARTCHAR peseta
ENCODING 8359
SWIDTH 585 0
DWIDTH 26 0
BBX 22 30 2 2
BITMAP
FC0000
FE0000
C78000
C78000
C38000
C38000
C38000
C38000
C38000
C38000
C18000
C19800
C19800
C19800
C19800
C7FFFC
C7FFFC
FE198C
FC198C
C01980
C01980
C019FC
C019FC
C0180C
C0180C
C0198C
C0198C
C0198C
C019FC
C019FC
ENDCHAR
STARTCHAR Euro
ENCODING 8364
SWIDTH 585 0
DWIDTH 26 0
BBX 22 34 2 2
BITMAP
00FFC0
007FC0
03FFF0
03FFF0
0FC03C
0FC03C
3F8000
3F8000
3C0000
3C0000
FFF000
FFF000
FFF000
FFF000
3C0000
3C0000
3C0000
FFF000
FFF000
FFF000
FFF000
3C0000
3C0000
3C0000
3C0000
3C0000
3F8000
3F0000
0FC03C
0FC03C
03FFF0
03FFF0
00FFC0
007FC0
ENDCHAR
STARTCHAR trademark
ENCODING 8482
SWIDTH 585 0
DWIDTH 26 0
BBX 21 13 3 19
BITMAP
FFF018
FFF018
0C3C78
0C3C78
0C3318
0C3318
0C3018
0C3018
0C3018
0C3018
0C3018
0C3018
0C3018
ENDCHAR
STARTCHAR arrowleft
ENCODING 8592
SWIDTH 585 0
DWIDTH 26 0
BBX 21 22 2 6
BITMAP
00F000
00F000
03C000
03C000
030000
0F0000
0F0000
3C0000
3C0000
FFFFF8
FFFFF8
FFFFF8
FFFFF8
3C0000
3C0000
0F0000
0F0000
0FC000
03C000
03C000
00F000
00F000
ENDCHAR
STARTCHAR arrowup
ENCODING 8593
SWIDTH 585 0
DWIDTH 26 0
BBX 20 22 2 6
BITMAP
00F800
00F800
00F000
00F000
03FE00
03FE00
03FE00
03FE00
03FE00
0F0F00
0F0F80
0F0F80
0F0F80
3C01E0
3C01E0
3C01E0
3C01E0
3C01E0
F000F0
F000F0
F000F0
F000F0
ENDCHAR
STARTCHAR arrowright
ENCODING 8594
SWIDTH 585 0
DWIDTH 26 0
BBX 21 22 2 6
BITMAP
007800
007800
001E00
001E00
001F80
000780
000780
0001E0
0001E0
FFFFF8
FFFFF8
FFFFF8
FFFFF8
0001E0
0001E0
000780
000780
000600
001E00
001E00
007800
007800
ENDCHAR
STARTCHAR arrowdown
ENCODING 8595
SWIDTH 585 0
DWIDTH 26 0
BBX 20 22 2 6
BITMAP
F000F0
F000F0
F000F0
F000F0
3C01E0
3C01E0
3C01E0
3C01E0
3C01E0
0F0F00
0F0F00
0F0F00
0F0F00
03FE00
03FE00
03FE00
03FE00
03FE00
00F000
00F000
00F000
00F000
ENDCHAR
STARTCHAR arrowboth
ENCODING 8596
SWIDTH 585 0
DWIDTH 26 0
BBX 21 22 2 4
BITMAP
001800
001800
001E00
001E00
001F80
001F80
FFFFE0
FFFFE0
FFFFF8
FFFFF8
FFFFF8
FFFFF8
FFFFF8
FFFFE0
FFFFE0
001F80
001F80
001E00
001E00
001E00
001800
001800
ENDCHAR
STARTCHAR fraction.dup5
ENCODING 8725
SWIDTH 585 0
DWIDTH 25 0
BBX 21 30 2 2
BITMAP
000078
000078
000078
000078
000078
000078
0001F8
0001F8
0001F8
0007E0
0007E0
003F80
003F80
00FE00
00FE00
03F800
03F800
0FE000
0FE000
3F0000
3F0000
FC0000
FC0000
FC0000
F00000
F00000
F00000
F00000
F00000
F00000
ENDCHAR
STARTCHAR triagup
ENCODING 9650
SWIDTH 585 0
DWIDTH 26 0
BBX 21 26 2 4
BITMAP
00F000
00F000
00F000
00F000
03FE00
03FE00
03FE00
03FE00
03FF80
0FFF80
0FFF80
0FFF80
0FFF80
3FFFE0
3FFFE0
3FFFE0
3FFFE0
FFFFF8
FFFFF8
FFFFF8
FFFFF8
FFFFF8
FFFFF8
FFFFF8
FFFFF8
FFFFF8
ENDCHAR
STARTCHAR triagrt
ENCODING 9658
SWIDTH 585 0
DWIDTH 26 0
BBX 17 26 5 4
BITMAP
FC0000
FC0000
FF8000
FF8000
FFE000
FFE000
FFF800
FFF800
FFF800
FFFE00
FFFE00
FFFF80
FFFF80
FFFF80
FFFF80
FFFE00
FFFE00
FFF800
FFF800
FFE000
FFE000
FFE000
FF8000
FF8000
FC0000
FC0000
ENDCHAR
STARTCHAR triagdn
ENCODING 9660
SWIDTH 585 0
DWIDTH 26 0
BBX 21 26 2 4
BITMAP
FFFFF8
FFFFF8
FFFFF8
FFFFF8
FFFFF8
FFFFF8
FFFFF8
FFFFF8
FFFFF8
3FFFE0
3FFFE0
3FFFE0
3FFFE0
0FFF80
0FFF80
0FFF80
0FFF80
0FFE00
03FE00
03FE00
03FE00
03FE00
00F000
00F000
00F000
00F000
ENDCHAR
STARTCHAR triaglf
ENCODING 9668
SWIDTH 585 0
DWIDTH 26 0
BBX 17 26 5 4
BITMAP
001F80
001F80
00FF80
00FF80
03FF80
03FF80
0FFF80
0FFF80
0FFF80
3FFF80
3FFF80
FFFF80
FFFF80
FFFF80
FFFF80
3FFF80
3FFF80
0FFF80
0FFF80
03FF80
03FF80
03FF80
00FF80
00FF80
001F80
001F80
ENDCHAR
STARTCHAR .notdef
ENCODING -1
SWIDTH 585 0
DWIDTH 27 0
BBX 26 39 0 0
BITMAP
FFFFFFC0
FFFFFFC0
E00003C0
F00003C0
F80007C0
F8000FC0
DC000EC0
CE001CC0
CE001CC0
C70038C0
C78070C0
C38070C0
C1C0E0C0
C1E1C0C0
C0E1C0C0
C07380C0
C07780C0
C03F00C0
C01E00C0
C01E00C0
C01E00C0
C03F00C0
C03F00C0
C07380C0
C0E180C0
C0E1C0C0
C1C0E0C0
C380E0C0
C38070C0
C70038C0
C60038C0
CE001CC0
DC000EC0
DC000EC0
F80007C0
F00003C0
F00003C0
FFFFFFC0
FFFFFFC0
ENDCHAR
STARTCHAR nonmarkingreturn
ENCODING -1
SWIDTH 585 0
DWIDTH 26 0
BBX 1 1 0 0
BITMAP
00
ENDCHAR
ENDFONT
